<svg xmlns="http://www.w3.org/2000/svg" width="350.725" height="359.929" viewBox="0 0 350.725 359.929"><defs><style>.a{fill:#fff;}.b{fill:#fcdc4a;}.c{fill:#211715;}</style></defs><path class="a" d="M191.614,213.891a60.845,60.845,0,0,0,4.9-6.794,21.274,21.274,0,0,0,3.45-7.938,14,14,0,0,0-5.324-12.786,14.82,14.82,0,0,0-15.831-1.578c-3.8,1.887-6.841,5-9.556,8.258a39.969,39.969,0,0,0-6.136,9.4,19.551,19.551,0,0,0-1.63,10.981,12.177,12.177,0,0,0,13.942,10.609,19.747,19.747,0,0,0,7.7-2.748A33.559,33.559,0,0,0,191.614,213.891Z"></path><path class="a" d="M191.614,140.928a60.845,60.845,0,0,0,4.9-6.794,21.274,21.274,0,0,0,3.45-7.938,14,14,0,0,0-5.324-12.786,14.82,14.82,0,0,0-15.831-1.578c-3.8,1.887-6.841,5-9.556,8.258a39.969,39.969,0,0,0-6.136,9.4,19.55,19.55,0,0,0-1.63,10.981,12.179,12.179,0,0,0,13.942,10.609,19.747,19.747,0,0,0,7.7-2.748A33.579,33.579,0,0,0,191.614,140.928Z"></path><path class="a" d="M191.614,180.93a60.833,60.833,0,0,0,4.9-6.793,21.278,21.278,0,0,0,3.45-7.939,14,14,0,0,0-5.324-12.786,14.822,14.822,0,0,0-15.831-1.577c-3.8,1.887-6.841,5-9.556,8.258a39.969,39.969,0,0,0-6.136,9.4,19.547,19.547,0,0,0-1.63,10.98,12.177,12.177,0,0,0,13.942,10.609,19.747,19.747,0,0,0,7.7-2.748A33.54,33.54,0,0,0,191.614,180.93Z"></path><path class="a" d="M170.356,65.484a61.009,61.009,0,0,0-4.9,6.794,21.288,21.288,0,0,0-3.449,7.938A14,14,0,0,0,167.332,93a14.822,14.822,0,0,0,15.832,1.577c3.8-1.887,11.492-9.022,14.207-12.28a76.82,76.82,0,0,0,7.223-11.028,18.7,18.7,0,0,0,1.533-11.487,11.955,11.955,0,0,0-5.891-8.6,12.97,12.97,0,0,0-7.954-1.5,19.763,19.763,0,0,0-7.7,2.748C181.326,54.354,172.8,62.584,170.356,65.484Z"></path><path class="a" d="M14.613,280.343c-7.321-15.1-3.331-33.6-4.1-50.821C9.4,204.633,7.624,181.966,3.068,144.411c-.91-7.508-1.516-15.023,2-21.717s11.363-9.251,18.665-7.283c6.6,1.778,10.557,5.887,13.067,12.244L158.456,256.574A288.751,288.751,0,0,1,104.4,298.411Z"></path><path class="a" d="M179.616,29.705l-146.434.01h-.436c0,32.929,0,175.737,0,211.389.286,0,.439,0,.439,0l150.552-.011h.145c0-35.668,0-178.478,0-211.384h-4.264Z"></path><path class="a" d="M278.787,357.522c-17.061-1.466-38.292-5.977-53.3-16.044-6.283-4.213-20.4-19.843-36.05-35.042-4.786-4.646-7.362-10.051-5.5-16.456a11.157,11.157,0,0,1,7.708-7.585,37.889,37.889,0,0,1,8.8-1.493l.59-.05C188.3,264.1,169.008,238.682,156,221.78c-4.7-6.111-8.374-18.768.074-25.271,8.2-6.31,16.543-1.525,22.629,5.226,9.671,10.727,30.805,36.472,40.793,47.423-.534-6.137,2.711-12.073,10.377-14.788,5.988-2.121,12.525-.283,15.255,5.03-1.7-5.508,1.359-12.314,7.916-15.365s14.592-2.339,18.013,3.3c-.626-5.314,4.189-9.489,8.914-11.176,5.084-1.815,12.73-.217,18.311,6.439,10.853,12.944,19.646,26.582,27.28,38.369,11.15,17.217,18.729,30.207,22.771,37.523Z"></path><path class="a" d="M278.787,357.522c-17.061-1.466-38.292-5.977-53.3-16.044-6.283-4.213-20.4-19.843-36.05-35.042-4.786-4.646-7.362-10.051-5.5-16.456a11.157,11.157,0,0,1,7.708-7.585,37.889,37.889,0,0,1,8.8-1.493l.59-.05C188.3,264.1,169.008,238.682,156,221.78c-4.7-6.111-8.374-18.768.074-25.271,8.2-6.31,16.543-1.525,22.629,5.226,9.671,10.727,30.805,36.472,40.793,47.423-.534-6.137,2.711-12.073,10.377-14.788,5.988-2.121,12.525-.283,15.255,5.03-1.7-5.508,1.359-12.314,7.916-15.365s14.592-2.339,18.013,3.3c-.626-5.314,4.189-9.489,8.914-11.176,5.084-1.815,12.73-.217,18.311,6.439,10.853,12.944,19.646,26.582,27.28,38.369,11.15,17.217,18.729,30.207,22.771,37.523Z"></path><path class="b" d="M170.781,241.087c-46.357,0-100.939,0-138.038.006v8.1a20.488,20.488,0,0,0,20.489,20.488H163.393A20.479,20.479,0,0,0,182.518,256.5C178.61,251.36,174.641,246.147,170.781,241.087Z" style="fill: rgb(155, 16, 26);"></path><path class="b" d="M183.882,22.917A20.488,20.488,0,0,0,163.393,2.429H53.232A20.488,20.488,0,0,0,32.743,22.917v6.8l151.139-.005Z" style="fill: rgb(155, 16, 26);"></path><path class="b" d="M108.445,89.479c-27.453,0-46.429,21.262-46.429,46.143,0,27.838,19.384,47.009,46.431,47.009,28.089,0,46.43-19.35,46.43-47.009C154.877,110.572,135.8,89.479,108.445,89.479Zm26.529,38.283q-13.377,13.692-27.067,27.076a6.209,6.209,0,0,1-8.641,0c-4.415-4.425-8.742-8.936-13.16-13.358a6.111,6.111,0,1,1,8.642-8.642c2.985,2.989,5.936,6.012,8.894,9.027q11.435-11.282,22.69-22.744a6.11,6.11,0,1,1,8.642,8.641Z" style="fill: rgb(155, 16, 26);"></path><path class="c" d="M105.61,300.487a285.941,285.941,0,0,0,40.226-29.105c2.343-2.021-1.065-5.4-3.394-3.394a278.847,278.847,0,0,1-39.255,28.355c-2.65,1.581-.239,5.733,2.423,4.144Z"></path><path class="c" d="M16.681,279.134c-5.708-11.95-4.141-25.914-3.766-38.722.324-11.037-.495-22.108-1.239-33.117-.755-11.177-1.74-22.337-2.885-33.48Q7.773,163.9,6.61,154.005c-.829-7.118-2.277-14.445-1.75-21.633.462-6.305,3.273-12.643,9.735-14.58a16.329,16.329,0,0,1,16.447,4.7c2.078,2.3,5.464-1.108,3.394-3.394C26,109.78,8.778,109.88,2.79,121.886c-3.3,6.616-3.1,14.019-2.281,21.177.857,7.5,1.787,14.987,2.606,22.489C4.437,177.662,5.6,189.79,6.5,201.939q.585,7.917,1.025,15.843c.323,5.783.713,11.585.69,17.379-.063,15.5-2.606,31.887,4.324,46.395a2.421,2.421,0,0,0,3.284.861,2.451,2.451,0,0,0,.861-3.283Z"></path><path class="c" d="M192.116,216.952a57.241,57.241,0,0,0,7.812-10.9,17.155,17.155,0,0,0,2.21-11.943c-1.689-8.29-9.92-14.023-18.259-13.213a2.466,2.466,0,0,0-2.4,2.4,2.417,2.417,0,0,0,2.4,2.4c6.433-.625,12.659,3.491,13.7,10.056.5,3.124-.678,5.988-2.23,8.639a53.56,53.56,0,0,1-6.627,9.168c-2.084,2.274,1.3,5.677,3.394,3.394Z"></path><path class="c" d="M185.09,149.927a37.687,37.687,0,0,0,8.816-8.021,51.625,51.625,0,0,0,6.82-10.376,16.038,16.038,0,0,0-4.246-19.71,17.7,17.7,0,0,0-12.6-3.895,2.466,2.466,0,0,0-2.4,2.4,2.417,2.417,0,0,0,2.4,2.4c7.283-.687,14.685,5.05,13.765,12.832-.484,4.1-3.455,7.986-5.809,11.222a35.182,35.182,0,0,1-9.168,9c-2.586,1.67-.182,5.827,2.423,4.144Z"></path><path class="c" d="M183.879,152.735c7.279-.705,14.631,5.023,13.766,12.777-.451,4.051-3.363,7.875-5.674,11.078a35.185,35.185,0,0,1-9.3,9.193c-2.592,1.663-.187,5.819,2.423,4.144a37.51,37.51,0,0,0,8.961-8.2,50.521,50.521,0,0,0,6.765-10.388,16.115,16.115,0,0,0,1.153-10.915,16.327,16.327,0,0,0-5.489-8.591,17.634,17.634,0,0,0-12.6-3.9,2.467,2.467,0,0,0-2.4,2.4,2.417,2.417,0,0,0,2.4,2.4Z"></path><path class="c" d="M185.09,54.957c3.831-2.55,9.214-4.2,13.558-1.91,3.757,1.983,5.292,5.737,5.363,9.829a15.61,15.61,0,0,1-1.085,6.382,43.471,43.471,0,0,1-3.487,6.017,49.039,49.039,0,0,1-7.077,8.83,53.156,53.156,0,0,1-9.695,8.008c-2.654,1.575-.242,5.726,2.423,4.144a57.73,57.73,0,0,0,10.31-8.411,55.98,55.98,0,0,0,8.41-10.507,38.97,38.97,0,0,0,3.882-7.166,20.6,20.6,0,0,0,1.091-8.089c-.282-5.21-2.47-9.971-7.013-12.779-5.9-3.65-13.589-2.162-19.1,1.508-2.559,1.7-.158,5.863,2.423,4.144Z"></path><path class="c" d="M98.411,19.383q9.9,0,19.8-.01c3.089,0,3.094-4.8,0-4.8q-9.9,0-19.8.01c-3.089,0-3.094,4.8,0,4.8Z"></path><path class="c" d="M186.279,207.625V26.416a43.337,43.337,0,0,0-.416-7.82C183.908,7.824,174.09.092,163.286.025c-9.144-.056-18.29,0-27.435,0H54.3a29.149,29.149,0,0,0-5.751.484A22.909,22.909,0,0,0,30.339,23.031c-.006,1.007,0,2.014,0,3.022V246.075c0,4.784.341,9.359,2.616,13.745,4.1,7.9,12.33,12.265,21.063,12.265h107.82a25.909,25.909,0,0,0,11.967-2.506,22.3,22.3,0,0,0,6.835-5.349,24.038,24.038,0,0,0,2.514-3.486c.685-1.171,1.775-2.858,1.775-4.239,0-3.088-4.8-3.094-4.8,0,0-.657-.185.067-.256.174-.2.3-.331.679-.5,1a20.53,20.53,0,0,1-1.154,1.894,18.141,18.141,0,0,1-10.109,7.094c-2.991.808-6.1.622-9.171.622H64.969q-5.646,0-11.292,0A18.366,18.366,0,0,1,35.451,252.6a42.741,42.741,0,0,1-.312-8.223V25.753c0-.92-.006-1.84,0-2.76a18.149,18.149,0,0,1,4.346-11.845A18.338,18.338,0,0,1,53.23,4.825c.64,0,1.281,0,1.922,0H155.837c2.51,0,5.02-.019,7.53,0a18.284,18.284,0,0,1,18.112,18.167c.07,10.409,0,20.82,0,31.228V207.625c0,3.089,4.8,3.094,4.8,0Z"></path><path class="c" d="M33.179,243.5H44.5l26.273,0,34.107,0,34.682,0h31.218c3.088,0,3.093-4.8,0-4.8H143.613l-34.428,0-34.571,0-27.5,0c-4.521,0-9.058-.109-13.578,0-.118,0-.236,0-.354,0-3.089,0-3.094,4.8,0,4.8Z"></path><path class="c" d="M33.182,32.115H48.989l35.486,0,42.588,0,37.116,0c6.353,0,12.715.1,19.068,0,.162,0,.325,0,.487,0,3.088,0,3.093-4.8,0-4.8H167.787l-35.558,0-42.592,0-37.053,0c-6.309,0-12.628-.1-18.936,0-.156,0-.311,0-.466,0-3.089,0-3.094,4.8,0,4.8Z"></path><path class="c" d="M214.681,294.848c-6.228-8.107-12.387-16.268-18.572-24.408q-13.793-18.155-27.621-36.283-3.245-4.244-6.494-8.483a72.708,72.708,0,0,1-5.476-7.435c-2.916-5.021-4.656-12.109-1.343-17.3a11.06,11.06,0,0,1,9.364-4.974c3.938.136,7.5,2.618,10.273,5.221A91.791,91.791,0,0,1,181.034,208q3.224,3.707,6.4,7.451c9.241,10.846,18.314,21.845,27.762,32.512q1.291,1.457,2.6,2.9c2.085,2.289,5.472-1.113,3.394-3.394-9.594-10.532-18.623-21.587-27.842-32.445-4.176-4.919-8.343-9.853-12.657-14.652-5.979-6.65-14.922-12.129-23.749-7.294a15.731,15.731,0,0,0-7.565,9.066,20.668,20.668,0,0,0-.112,10.71,27.455,27.455,0,0,0,3.978,9.2c1.874,2.75,4.053,5.327,6.077,7.969q14.259,18.609,28.422,37.29,10.722,14.109,21.452,28.212.669.876,1.34,1.75a2.481,2.481,0,0,0,3.284.861,2.415,2.415,0,0,0,.861-3.283Z"></path><path class="c" d="M278.787,355.122a148.463,148.463,0,0,1-27.772-4.988c-8.761-2.5-17.615-5.9-25.062-11.251a2.552,2.552,0,0,1-.405-.308c-.262-.211-.524-.422-.783-.638-.581-.483-1.151-.979-1.714-1.482-1.351-1.2-2.666-2.45-3.968-3.708-3.312-3.2-6.54-6.486-9.769-9.769-3.854-3.919-7.7-7.847-11.589-11.733q-3.1-3.1-6.243-6.163a22.45,22.45,0,0,1-4.311-5.417c-2.071-3.862-2.1-9.264,1.1-12.555,3-3.083,7.931-3.465,12.165-3.808a2.461,2.461,0,0,0,2.4-2.4,2.417,2.417,0,0,0-2.4-2.4c-4.4.357-9.51.8-13.283,3.347a14.546,14.546,0,0,0-6.221,12.751c.2,5.169,2.931,9.66,6.506,13.242,4.332,4.339,8.725,8.616,13.028,12.985,6.6,6.7,13.027,13.729,20.165,19.878,6.946,5.983,15.765,9.76,24.392,12.61a148.791,148.791,0,0,0,33.763,6.607,2.419,2.419,0,0,0,2.4-2.4,2.45,2.45,0,0,0-2.4-2.4Z"></path><path class="c" d="M221.9,249.158c-.409-5.344,2.432-9.685,7.334-11.958,4.836-2.243,11.11-1.668,13.826,3.411,1.284,2.4,5.146.759,4.386-1.849-1.536-5.273,2.071-10.557,6.98-12.731,4.635-2.052,11.53-2.3,14.563,2.517,1.171,1.86,4.711,1.3,4.472-1.212-.344-3.612,2.193-6.286,5.172-7.945a11.325,11.325,0,0,1,8.243-1.25,17.552,17.552,0,0,1,9.437,5.832c3.236,3.7,6.218,7.654,9.136,11.606,5.521,7.475,10.66,15.219,15.719,23.011,4.987,7.684,9.912,15.407,14.668,23.236,3.582,5.9,7.09,11.839,10.429,17.876,1.5,2.7,5.642.285,4.144-2.423-7.738-13.992-16.283-27.53-24.984-40.938-5.435-8.374-10.961-16.693-16.947-24.686q-2.382-3.18-4.853-6.292a67.489,67.489,0,0,0-5.053-6,21.36,21.36,0,0,0-10.893-5.948,16.758,16.758,0,0,0-12.086,2.19c-4.057,2.484-7.407,6.739-6.932,11.728l4.472-1.211c-4.453-7.073-13.769-7.46-20.794-4.387-6.9,3.016-11.718,10.764-9.521,18.3l4.386-1.849c-3.847-7.195-12.7-8.461-19.674-5.453-6.595,2.844-10.989,9.127-10.43,16.422a2.459,2.459,0,0,0,2.4,2.4,2.419,2.419,0,0,0,2.4-2.4Z"></path></svg>